<!DOCTYPE svg PUBLIC "-//W3C//DTD SVG 1.1//EN" "http://www.w3.org/Graphics/SVG/1.1/DTD/svg11.dtd">
<!-- Uploaded to: SVG Repo, www.svgrepo.com, Transformed by: SVG Repo Mixer Tools -->
<svg height="201px" width="201px" version="1.1" id="Capa_1" xmlns="http://www.w3.org/2000/svg" xmlns:xlink="http://www.w3.org/1999/xlink" viewBox="0 0 346.08 346.08" xml:space="preserve" fill="#ffbb00" transform="rotate(0)matrix(1, 0, 0, 1, 0, 0)" stroke="#ffbb00" stroke-width="6.575481999999999">
<g id="SVGRepo_bgCarrier" stroke-width="0"/>
<g id="SVGRepo_tracerCarrier" stroke-linecap="round" stroke-linejoin="round" stroke="#CCCCCC" stroke-width="0.692156"/>
<g id="SVGRepo_iconCarrier"> <g> <path style="fill:#ffffff;" d="M173.039,346.075c-74.89,0-138.795-47.83-162.836-114.534l201.65,0.394l-36.141,36.141l9.082,9.082 l51.607-51.613l-52.508-52.508l-9.082,9.082l36.977,36.983l-205.63-0.406C2.172,204.142,0,188.842,0,173.042 C0,77.626,77.623,0.003,173.039,0.003c74.884,0,138.795,47.824,162.836,114.534l-200.642-0.388l36.141-36.141l-9.082-9.082 l-51.607,51.613l52.508,52.508l9.082-9.082l-36.977-36.983l204.622,0.406c3.986,14.559,6.158,29.858,6.158,45.664 C346.078,268.447,268.45,346.075,173.039,346.075z"/> </g> </g>
</svg>